# xmcd CD database file
#
# Track frame offsets:
#	200
#	33307
#	67025
#	100310
#	124175
#	159875
#	195500
#	219592
#	241287
#	268475
#	308225
#	333995
#
# Disc length: 4483 seconds
#
# Revision: 0
# Processed by: cddbd v1.4PL0 Copyright (c) Steve Scherf et al.
# Submitted via: CDex 1.50Beta6
#
DISCID=ad11810c
DTITLE=Klatt, Gunther and Tizian Jost - Art of the Duo - Live in Mexico City
DYEAR=1900
DGENRE=Jazz
TTITLE0=Prelude to a Kiss
TTITLE1=Lost in the Starts
TTITLE2=Day Dream
TTITLE3=Solitude
TTITLE4=Strangehorn
TTITLE5=Warm Valley
TTITLE6=Star-Crossed Lovers
TTITLE7=Mexico City
TTITLE8=Speak Low
TTITLE9=Guidecca
TTITLE10=In a sentimental mood
TTITLE11=final
EXTD=
EXTT0=
EXTT1=
EXTT2=
EXTT3=
EXTT4=
EXTT5=
EXTT6=
EXTT7=
EXTT8=
EXTT9=
EXTT10=
EXTT11=
PLAYORDER=
